<?xml version="1.0" encoding="UTF-8"?>
<svg xmlns="http://www.w3.org/2000/svg" xmlns:xlink="http://www.w3.org/1999/xlink" viewBox="0 0 512 512" width="512px" height="512px">
<g id="surface78246473">
<path style=" stroke:none;fill-rule:nonzero;fill:rgb(49.803922%,33.333334%,22.352941%);fill-opacity:1;" d="M 256 42.667969 C 138.179688 42.667969 42.667969 138.179688 42.667969 256 C 42.667969 373.820312 138.179688 469.332031 256 469.332031 C 373.820312 469.332031 469.332031 373.820312 469.332031 256 C 469.332031 138.179688 373.820312 42.667969 256 42.667969 Z M 256 42.667969 "/>
<path style=" stroke:none;fill-rule:nonzero;fill:rgb(100%,100%,100%);fill-opacity:1;" d="M 149.332031 202.667969 L 192 202.667969 L 192 362.667969 L 149.332031 362.667969 Z M 170.539062 181.332031 L 170.304688 181.332031 C 157.566406 181.332031 149.332031 171.839844 149.332031 159.988281 C 149.332031 147.882812 157.824219 138.667969 170.785156 138.667969 C 183.765625 138.667969 191.753906 147.882812 192 159.988281 C 192 171.839844 183.765625 181.332031 170.539062 181.332031 Z M 373.332031 261.332031 C 373.332031 228.929688 347.070312 202.667969 314.667969 202.667969 C 294.804688 202.667969 277.28125 212.566406 266.667969 227.667969 L 266.667969 202.667969 L 224 202.667969 L 224 362.667969 L 266.667969 362.667969 L 266.667969 277.332031 C 266.667969 259.660156 280.992188 245.332031 298.667969 245.332031 C 316.339844 245.332031 330.667969 259.660156 330.667969 277.332031 L 330.667969 362.667969 L 373.332031 362.667969 C 373.332031 362.667969 373.332031 265.824219 373.332031 261.332031 Z M 373.332031 261.332031 "/>
</g>
</svg>
